<svg width="138.016846" height="30.000000" viewBox="0 0 138.017 30" fill="none" xmlns="http://www.w3.org/2000/svg" xmlns:xlink="http://www.w3.org/1999/xlink">
	<desc>
			Created with Pixso.
	</desc>
	<defs/>
	<path id="Subtract" d="M15 0C20.14 0 24.67 2.58 27.38 6.52L16.87 17.03L10.7 10.86C9.96 10.12 8.78 10.12 8.04 10.86L0.41 18.5C0.14 17.37 0 16.2 0 15C0 6.71 6.71 0 15 0ZM18.2 21.01L29.16 10.05C29.7 11.59 30 13.26 30 15C30 23.28 23.28 30 15 30C9.37 30 4.46 26.89 1.9 22.31L9.37 14.83L15.54 21.01C16.28 21.74 17.46 21.74 18.2 21.01Z" fill="#8794BA" fill-opacity="1.000000" fill-rule="evenodd"/>
	<path id="ANALYTICS" d="M117.26 16.99C117.22 17.82 117 18.54 116.6 19.18C116.19 19.8 115.62 20.29 114.88 20.64Q113.79 21.16 112.38 21.16C110.82 21.16 109.6 20.65 108.71 19.64Q107.37 18.12 107.37 15.35L107.37 14.77C107.37 13.61 107.57 12.6 107.97 11.73C108.37 10.86 108.96 10.19 109.71 9.72Q109.9 9.6 110.09 9.51L110.09 9.51Q111.09 9.01 112.34 9.01Q114.29 9.01 115.55 9.94L115.55 9.94Q115.68 10.04 115.8 10.14Q116.13 10.42 116.38 10.76L116.38 10.76Q117.15 11.77 117.29 13.26L114.45 13.26C114.42 12.54 114.24 12.02 113.9 11.71Q113.39 11.24 112.34 11.24Q111.67 11.24 111.23 11.56Q110.97 11.74 110.78 12.03C110.45 12.56 110.28 13.41 110.27 14.57L110.27 15.41C110.27 16.67 110.42 17.57 110.74 18.11C111.06 18.65 111.6 18.93 112.38 18.93C113.03 18.93 113.53 18.77 113.88 18.46C114.22 18.15 114.41 17.66 114.43 16.99L117.26 16.99ZM124.71 17.85C124.71 17.44 124.56 17.11 124.26 16.88C123.97 16.65 123.45 16.41 122.71 16.16C121.97 15.91 121.36 15.67 120.89 15.43C119.36 14.68 118.59 13.65 118.59 12.33C118.59 11.68 118.78 11.1 119.16 10.6C119.55 10.1 120.09 9.71 120.79 9.44C121.48 9.15 122.27 9.01 123.14 9.01C123.99 9.01 124.75 9.16 125.42 9.47C126.1 9.77 126.62 10.2 127 10.77Q127.16 11.01 127.28 11.28Q127.56 11.92 127.56 12.68L124.71 12.68C124.71 12.2 124.57 11.83 124.27 11.56Q124.24 11.53 124.2 11.5Q123.77 11.16 123.08 11.16C122.57 11.16 122.16 11.28 121.87 11.51Q121.61 11.7 121.51 11.95Q121.43 12.14 121.43 12.36Q121.43 12.43 121.44 12.49Q121.5 12.87 121.91 13.19C122.24 13.43 122.81 13.68 123.63 13.95C124.44 14.21 125.12 14.49 125.64 14.79C126.92 15.53 127.56 16.54 127.56 17.84Q127.56 18.72 127.18 19.39Q126.89 19.89 126.39 20.27C125.61 20.86 124.54 21.16 123.18 21.16Q121.74 21.16 120.57 20.65Q119.41 20.13 118.82 19.23Q118.68 19.02 118.57 18.78Q118.24 18.05 118.24 17.16L121.09 17.16C121.09 17.8 121.26 18.26 121.58 18.57C121.91 18.87 122.44 19.01 123.18 19.01C123.65 19.01 124.02 18.91 124.29 18.71C124.57 18.51 124.71 18.22 124.71 17.85ZM47.1 18.79L43.2 18.79L42.51 21L39.47 21L43.81 9.18L46.48 9.18L50.85 21L47.79 21L47.1 18.79ZM61.59 21L58.76 21L54.57 13.64L54.57 21L51.72 21L51.72 9.18L54.57 9.18L58.75 16.53L58.75 9.18L61.59 9.18L61.59 21ZM70.25 18.79L66.35 18.79L65.67 21L62.62 21L66.96 9.18L69.64 9.18L74 21L70.94 21L70.25 18.79ZM77.72 18.8L82.68 18.8L82.68 21L74.87 21L74.87 9.18L77.72 9.18L77.72 18.8ZM85.94 14.31L88.11 9.18L91.19 9.18L87.38 16.75L87.38 21L84.49 21L84.49 16.75L80.69 9.18L83.75 9.18L85.94 14.31ZM101.47 11.38L97.93 11.38L97.93 21L95.08 21L95.08 11.38L91.59 11.38L91.59 9.18L101.47 9.18L101.47 11.38ZM105.72 21L102.88 21L102.88 9.18L105.72 9.18L105.72 21ZM43.88 16.59L46.42 16.59L45.14 12.49L43.88 16.59ZM67.03 16.59L69.57 16.59L68.3 12.49L67.03 16.59Z" fill="#8794BA" fill-opacity="1.000000" fill-rule="evenodd"/>
</svg>
